<?xml version="1.0" encoding="UTF-8"?>
<svg width="700pt" height="700pt" version="1.1" viewBox="0 0 700 700" xmlns="http://www.w3.org/2000/svg" xmlns:xlink="http://www.w3.org/1999/xlink">
 <defs>
  <symbol id="w" overflow="visible">
   <path d="m25.359-1.5156c-1.3125 0.67969-2.6797 1.1875-4.0938 1.5312-1.418 0.34375-2.8984 0.51562-4.4375 0.51562-4.5938 0-8.2344-1.2812-10.922-3.8438-2.6797-2.5703-4.0156-6.0547-4.0156-10.453 0-4.4062 1.3359-7.8945 4.0156-10.469 2.6875-2.5703 6.3281-3.8594 10.922-3.8594 1.5391 0 3.0195 0.17969 4.4375 0.53125 1.4141 0.34375 2.7812 0.85547 4.0938 1.5312v5.7031c-1.3242-0.89453-2.625-1.5508-3.9062-1.9688-1.2812-0.42578-2.6328-0.64062-4.0469-0.64062-2.543 0-4.543 0.82031-6 2.4531-1.4492 1.625-2.1719 3.8672-2.1719 6.7188 0 2.8438 0.72266 5.0781 2.1719 6.7031 1.457 1.625 3.457 2.4375 6 2.4375 1.4141 0 2.7656-0.20703 4.0469-0.625 1.2812-0.41406 2.582-1.0703 3.9062-1.9688z"/>
  </symbol>
  <symbol id="d" overflow="visible">
   <path d="m18.547-15.062c-0.57422-0.26953-1.1484-0.46875-1.7188-0.59375-0.57422-0.13281-1.1523-0.20312-1.7344-0.20312-1.6992 0-3.0078 0.54688-3.9219 1.6406-0.91797 1.0938-1.375 2.6562-1.375 4.6875v9.5312h-6.625v-20.703h6.625v3.4062c0.84375-1.3516 1.8164-2.3359 2.9219-2.9531 1.1016-0.625 2.4258-0.9375 3.9688-0.9375 0.21875 0 0.45703 0.011719 0.71875 0.03125 0.25781 0.011719 0.63281 0.046875 1.125 0.10938z"/>
  </symbol>
  <symbol id="a" overflow="visible">
   <path d="m23.844-10.406v1.8906h-15.469c0.15625 1.5547 0.71094 2.7188 1.6719 3.5 0.96875 0.77344 2.3125 1.1562 4.0312 1.1562 1.3945 0 2.8203-0.20312 4.2812-0.60938 1.457-0.41406 2.957-1.0469 4.5-1.8906v5.1094c-1.5625 0.58594-3.1328 1.0273-4.7031 1.3281-1.5625 0.30078-3.125 0.45312-4.6875 0.45312-3.7422 0-6.6523-0.94531-8.7344-2.8438-2.0742-1.9062-3.1094-4.5781-3.1094-8.0156 0-3.375 1.0195-6.0234 3.0625-7.9531 2.0391-1.9375 4.8438-2.9062 8.4062-2.9062 3.2578 0 5.8633 0.98047 7.8125 2.9375 1.957 1.9609 2.9375 4.5742 2.9375 7.8438zm-6.8125-2.2031c0-1.25-0.36719-2.2578-1.0938-3.0312-0.73047-0.76953-1.6875-1.1562-2.875-1.1562-1.2812 0-2.3242 0.35938-3.125 1.0781-0.80469 0.71875-1.3047 1.7578-1.5 3.1094z"/>
  </symbol>
  <symbol id="c" overflow="visible">
   <path d="m12.453-9.3125c-1.375 0-2.4141 0.23438-3.1094 0.70312-0.69922 0.46875-1.0469 1.1562-1.0469 2.0625 0 0.84375 0.28125 1.5078 0.84375 1.9844 0.5625 0.46875 1.3359 0.70312 2.3281 0.70312 1.25 0 2.2969-0.44531 3.1406-1.3438 0.85156-0.89453 1.2812-2.0156 1.2812-3.3594v-0.75zm10.109-2.5v11.812h-6.6719v-3.0625c-0.88672 1.25-1.8867 2.1641-3 2.7344-1.1055 0.57031-2.4531 0.85938-4.0469 0.85938-2.1367 0-3.875-0.625-5.2188-1.875-1.3359-1.25-2-2.8672-2-4.8594 0-2.4258 0.83203-4.207 2.5-5.3438 1.6758-1.1328 4.3008-1.7031 7.875-1.7031h3.8906v-0.51562c0-1.0508-0.41406-1.8164-1.2344-2.2969-0.82422-0.48828-2.1094-0.73438-3.8594-0.73438-1.418 0-2.7422 0.14062-3.9688 0.42188-1.2188 0.28125-2.3516 0.71094-3.3906 1.2812v-5.0469c1.4141-0.34375 2.8359-0.60156 4.2656-0.78125 1.4258-0.17578 2.8594-0.26562 4.2969-0.26562 3.7266 0 6.4219 0.73438 8.0781 2.2031s2.4844 3.8594 2.4844 7.1719z"/>
  </symbol>
  <symbol id="b" overflow="visible">
   <path d="m10.406-26.578v5.875h6.8125v4.7344h-6.8125v8.7812c0 0.96094 0.1875 1.6094 0.5625 1.9531 0.38281 0.33594 1.1445 0.5 2.2812 0.5h3.4062v4.7344h-5.6875c-2.6055 0-4.4531-0.53906-5.5469-1.625-1.0938-1.0938-1.6406-2.9453-1.6406-5.5625v-8.7812h-3.2812v-4.7344h3.2812v-5.875z"/>
  </symbol>
  <symbol id="k" overflow="visible">
   <path d="m17.266-17.672v-11.078h6.6406v28.75h-6.6406v-3c-0.91797 1.2188-1.9219 2.1172-3.0156 2.6875-1.0938 0.5625-2.3672 0.84375-3.8125 0.84375-2.5547 0-4.6484-1.0078-6.2812-3.0312-1.6367-2.0312-2.4531-4.6406-2.4531-7.8281s0.81641-5.7891 2.4531-7.8125c1.6328-2.0312 3.7266-3.0469 6.2812-3.0469 1.4258 0 2.6914 0.28906 3.7969 0.85938 1.1016 0.57422 2.1133 1.4609 3.0312 2.6562zm-4.375 13.406c1.4141 0 2.5-0.51562 3.25-1.5469 0.75-1.0391 1.125-2.5469 1.125-4.5156s-0.375-3.4688-1.125-4.5c-0.75-1.0391-1.8359-1.5625-3.25-1.5625-1.3984 0-2.4688 0.52344-3.2188 1.5625-0.74219 1.0312-1.1094 2.5312-1.1094 4.5s0.36719 3.4766 1.1094 4.5156c0.75 1.0312 1.8203 1.5469 3.2188 1.5469z"/>
  </symbol>
  <symbol id="j" overflow="visible">
   <path d="m14.188-4.2656c1.4141 0 2.4922-0.51562 3.2344-1.5469 0.75-1.0391 1.125-2.5469 1.125-4.5156s-0.375-3.4688-1.125-4.5c-0.74219-1.0391-1.8203-1.5625-3.2344-1.5625-1.418 0-2.5078 0.52344-3.2656 1.5625-0.75 1.043-1.125 2.543-1.125 4.5 0 1.9609 0.375 3.4609 1.125 4.5 0.75781 1.043 1.8477 1.5625 3.2656 1.5625zm-4.3906-13.406c0.90625-1.1953 1.9102-2.082 3.0156-2.6562 1.1133-0.57031 2.3945-0.85938 3.8438-0.85938 2.5391 0 4.6289 1.0156 6.2656 3.0469 1.6445 2.0234 2.4688 4.625 2.4688 7.8125s-0.82422 5.7969-2.4688 7.8281c-1.6367 2.0234-3.7266 3.0312-6.2656 3.0312-1.4492 0-2.7305-0.28906-3.8438-0.85938-1.1055-0.57031-2.1094-1.4609-3.0156-2.6719v3h-6.625v-28.75h6.625z"/>
  </symbol>
  <symbol id="i" overflow="visible">
   <path d="m0.46875-20.703h6.6094l5.5625 14.047 4.7344-14.047h6.6094l-8.7031 22.656c-0.875 2.3125-1.8984 3.9258-3.0625 4.8438-1.1562 0.91406-2.6953 1.375-4.6094 1.375h-3.8281v-4.3438h2.0781c1.125 0 1.9414-0.18359 2.4531-0.54688 0.50781-0.35547 0.90625-0.99219 1.1875-1.9062l0.1875-0.57812z"/>
  </symbol>
  <symbol id="h" overflow="visible">
   <path d="m20.219-5.0312h-11.125l-1.7656 5.0312h-7.1406l10.219-27.594h8.4844l10.219 27.594h-7.1562zm-9.3594-5.1094h7.5625l-3.7656-10.984z"/>
  </symbol>
  <symbol id="v" overflow="visible">
   <path d="m2.1562-20.703h18.062v4.625l-10.906 11.344h10.906v4.7344h-18.516v-4.625l10.906-11.344h-10.453z"/>
  </symbol>
  <symbol id="g" overflow="visible">
   <path d="m22.359-17.266c0.83203-1.2812 1.8281-2.2539 2.9844-2.9219 1.1562-0.66406 2.4219-1 3.7969-1 2.375 0 4.1797 0.73438 5.4219 2.2031 1.25 1.4609 1.875 3.5859 1.875 6.375v12.609h-6.6562v-10.797c0.019531-0.15625 0.03125-0.31641 0.03125-0.48438 0.007812-0.17578 0.015625-0.42578 0.015625-0.75 0-1.4688-0.21875-2.5312-0.65625-3.1875-0.42969-0.65625-1.1211-0.98438-2.0781-0.98438-1.2617 0-2.2344 0.52344-2.9219 1.5625-0.67969 1.0312-1.0312 2.5273-1.0625 4.4844v10.156h-6.6406v-10.797c0-2.2891-0.19922-3.7656-0.59375-4.4219-0.39844-0.65625-1.1016-0.98438-2.1094-0.98438-1.2734 0-2.25 0.52344-2.9375 1.5625-0.6875 1.043-1.0312 2.5273-1.0312 4.4531v10.188h-6.6562v-20.703h6.6562v3.0312c0.8125-1.1641 1.7422-2.0391 2.7969-2.625 1.0508-0.59375 2.2109-0.89062 3.4844-0.89062 1.4258 0 2.6875 0.34375 3.7812 1.0312 1.1016 0.6875 1.9375 1.6523 2.5 2.8906z"/>
  </symbol>
  <symbol id="u" overflow="visible">
   <path d="m3.4688-27.594h7.125v27.594h-7.125z"/>
  </symbol>
  <symbol id="t" overflow="visible">
   <path d="m19.344-20.047v5.0312c-1.418-0.59375-2.7891-1.0352-4.1094-1.3281-1.3125-0.30078-2.5547-0.45312-3.7188-0.45312-1.2617 0-2.1992 0.15625-2.8125 0.46875-0.60547 0.3125-0.90625 0.79688-0.90625 1.4531 0 0.53125 0.22656 0.9375 0.6875 1.2188 0.46875 0.28125 1.2969 0.49219 2.4844 0.625l1.1719 0.17188c3.3828 0.42969 5.6602 1.1367 6.8281 2.125 1.1758 0.99219 1.7656 2.5391 1.7656 4.6406 0 2.1992-0.8125 3.8555-2.4375 4.9688-1.625 1.1055-4.0547 1.6562-7.2812 1.6562-1.3672 0-2.7812-0.10938-4.25-0.32812-1.4609-0.20703-2.9609-0.52344-4.5-0.95312v-5.0312c1.3203 0.63672 2.6758 1.1172 4.0625 1.4375 1.3828 0.32422 2.7891 0.48438 4.2188 0.48438 1.2891 0 2.2656-0.17578 2.9219-0.53125 0.65625-0.36328 0.98438-0.89453 0.98438-1.5938 0-0.59375-0.23047-1.0352-0.6875-1.3281-0.44922-0.28906-1.3398-0.51562-2.6719-0.67188l-1.1719-0.14062c-2.9492-0.375-5.0156-1.0547-6.2031-2.0469-1.1797-1-1.7656-2.5195-1.7656-4.5625 0-2.1875 0.75-3.8047 2.25-4.8594 1.5078-1.0625 3.8164-1.5938 6.9219-1.5938 1.2188 0 2.5 0.09375 3.8438 0.28125 1.3438 0.17969 2.8008 0.46484 4.375 0.85938z"/>
  </symbol>
  <symbol id="f" overflow="visible">
   <path d="m23.984-12.609v12.609h-6.6562v-9.6094c0-1.8125-0.042969-3.0547-0.125-3.7344-0.074219-0.67578-0.21094-1.1758-0.40625-1.5-0.26172-0.42578-0.61719-0.75781-1.0625-1-0.4375-0.23828-0.9375-0.35938-1.5-0.35938-1.3867 0-2.4766 0.53125-3.2656 1.5938-0.78125 1.0625-1.1719 2.5391-1.1719 4.4219v10.188h-6.625v-28.75h6.625v11.078c1-1.1953 2.0547-2.082 3.1719-2.6562 1.125-0.57031 2.3633-0.85938 3.7188-0.85938 2.3828 0 4.1953 0.73438 5.4375 2.2031 1.2383 1.4609 1.8594 3.5859 1.8594 6.375z"/>
  </symbol>
  <symbol id="s" overflow="visible">
   <path d="m12.891-16.391c-1.3984 0-2.4688 0.52344-3.2188 1.5625-0.74219 1.0312-1.1094 2.5312-1.1094 4.5s0.36719 3.4766 1.1094 4.5156c0.75 1.0312 1.8203 1.5469 3.2188 1.5469 1.4141 0 2.5-0.51562 3.25-1.5469 0.75-1.0391 1.125-2.5469 1.125-4.5156s-0.375-3.4688-1.125-4.5c-0.75-1.0391-1.8359-1.5625-3.25-1.5625zm4.375 13.391c-0.91797 1.2188-1.9219 2.1172-3.0156 2.6875-1.0938 0.5625-2.3672 0.84375-3.8125 0.84375-2.5547 0-4.6484-1.0078-6.2812-3.0312-1.6367-2.0312-2.4531-4.6406-2.4531-7.8281s0.81641-5.7852 2.4531-7.7969c1.6328-2.0195 3.7266-3.0312 6.2812-3.0312 1.4453 0 2.7188 0.28906 3.8125 0.85938 1.0938 0.5625 2.0977 1.4531 3.0156 2.6719v-3.0781h6.6406v28.578h-6.6406z"/>
  </symbol>
  <symbol id="r" overflow="visible">
   <path d="m16.797-28.75v4.3438h-3.6562c-0.9375 0-1.5938 0.17188-1.9688 0.51562-0.36719 0.33594-0.54688 0.91797-0.54688 1.75v1.4375h5.6562v4.7344h-5.6562v15.969h-6.6094v-15.969h-3.2969v-4.7344h3.2969v-1.4375c0-2.25 0.625-3.9102 1.875-4.9844 1.2578-1.082 3.207-1.625 5.8438-1.625z"/>
  </symbol>
  <symbol id="e" overflow="visible">
   <path d="m13.031-16.469c-1.4688 0-2.5898 0.53125-3.3594 1.5938-0.77344 1.0547-1.1562 2.5703-1.1562 4.5469 0 1.9805 0.38281 3.5 1.1562 4.5625 0.76953 1.0547 1.8906 1.5781 3.3594 1.5781 1.4375 0 2.5352-0.52344 3.2969-1.5781 0.76953-1.0625 1.1562-2.582 1.1562-4.5625 0-1.9766-0.38672-3.4922-1.1562-4.5469-0.76172-1.0625-1.8594-1.5938-3.2969-1.5938zm0-4.7188c3.5625 0 6.3438 0.96484 8.3438 2.8906 2 1.918 3 4.5742 3 7.9688 0 3.3984-1 6.0586-3 7.9844-2 1.918-4.7812 2.875-8.3438 2.875-3.5742 0-6.3711-0.95703-8.3906-2.875-2.0117-1.9258-3.0156-4.5859-3.0156-7.9844 0-3.3945 1.0039-6.0508 3.0156-7.9688 2.0195-1.9258 4.8164-2.8906 8.3906-2.8906z"/>
  </symbol>
  <symbol id="q" overflow="visible">
   <path d="m3.4688-27.594h7.9531l10.031 18.922v-18.922h6.75v27.594h-7.9531l-10.031-18.922v18.922h-6.75z"/>
  </symbol>
  <symbol id="p" overflow="visible">
   <path d="m2.9531-8.0625v-12.641h6.6562v2.0781c0 1.125-0.007813 2.5391-0.015625 4.2344-0.011719 1.6875-0.015625 2.8125-0.015625 3.375 0 1.668 0.039063 2.8711 0.125 3.6094 0.082031 0.73047 0.22656 1.2578 0.4375 1.5781 0.26953 0.4375 0.625 0.77734 1.0625 1.0156 0.4375 0.23047 0.94141 0.34375 1.5156 0.34375 1.375 0 2.4531-0.53125 3.2344-1.5938 0.78906-1.0625 1.1875-2.5352 1.1875-4.4219v-10.219h6.625v20.703h-6.625v-3c-0.99219 1.2109-2.043 2.1016-3.1562 2.6719-1.1172 0.57031-2.3438 0.85938-3.6875 0.85938-2.3984 0-4.2188-0.72656-5.4688-2.1875-1.25-1.4688-1.875-3.6016-1.875-6.4062z"/>
  </symbol>
  <symbol id="o" overflow="visible">
   <path d="m23.984-12.609v12.609h-6.6562v-9.6406c0-1.7891-0.042969-3.0234-0.125-3.7031-0.074219-0.67578-0.21094-1.1758-0.40625-1.5-0.26172-0.42578-0.61719-0.75781-1.0625-1-0.4375-0.23828-0.9375-0.35938-1.5-0.35938-1.3867 0-2.4766 0.53125-3.2656 1.5938-0.78125 1.0625-1.1719 2.5391-1.1719 4.4219v10.188h-6.625v-20.703h6.625v3.0312c1-1.1953 2.0547-2.082 3.1719-2.6562 1.125-0.57031 2.3633-0.85938 3.7188-0.85938 2.3828 0 4.1953 0.73438 5.4375 2.2031 1.2383 1.4609 1.8594 3.5859 1.8594 6.375z"/>
  </symbol>
  <symbol id="n" overflow="visible">
   <path d="m3.4688-27.594h11.812c3.5078 0 6.2031 0.78125 8.0781 2.3438 1.8828 1.5625 2.8281 3.7812 2.8281 6.6562 0 2.8984-0.94531 5.125-2.8281 6.6875-1.875 1.5547-4.5703 2.3281-8.0781 2.3281h-4.6875v9.5781h-7.125zm7.125 5.1562v7.7031h3.9375c1.375 0 2.4375-0.33203 3.1875-1 0.75-0.66406 1.125-1.6172 1.125-2.8594 0-1.2266-0.375-2.1758-1.125-2.8438-0.75-0.66406-1.8125-1-3.1875-1z"/>
  </symbol>
  <symbol id="m" overflow="visible">
   <path d="m3.1719-20.703h6.625v20.328c0 2.7695-0.66797 4.8828-2 6.3438-1.3359 1.4688-3.2617 2.2031-5.7812 2.2031h-3.2656v-4.3438h1.1406c1.2578 0 2.1172-0.28906 2.5781-0.85938 0.46875-0.5625 0.70312-1.6797 0.70312-3.3438zm0-8.0469h6.625v5.3906h-6.625z"/>
  </symbol>
  <symbol id="l" overflow="visible">
   <path d="m19.906-20.047v5.3906c-0.90625-0.61328-1.8125-1.0664-2.7188-1.3594-0.89844-0.30078-1.8359-0.45312-2.8125-0.45312-1.8438 0-3.2812 0.54297-4.3125 1.625-1.0312 1.0742-1.5469 2.5781-1.5469 4.5156s0.51562 3.4492 1.5469 4.5312c1.0312 1.0742 2.4688 1.6094 4.3125 1.6094 1.0312 0 2.0078-0.15625 2.9375-0.46875 0.9375-0.3125 1.8008-0.76953 2.5938-1.375v5.4219c-1.043 0.38672-2.0938 0.67188-3.1562 0.85938s-2.1328 0.28125-3.2031 0.28125c-3.7305 0-6.6523-0.95312-8.7656-2.8594-2.1055-1.9141-3.1562-4.582-3.1562-8 0-3.4141 1.0508-6.0781 3.1562-7.9844 2.1133-1.9141 5.0352-2.875 8.7656-2.875 1.082 0 2.1484 0.09375 3.2031 0.28125 1.0508 0.1875 2.1016 0.47656 3.1562 0.85938z"/>
  </symbol>
 </defs>
 <g>
  <path d="m588.3 401.46-84.379-27.168 0.003906-95.656c0-0.83203-0.22656-4.2383-3.9336-5.3711l-148.18-47.754c-1.1367-0.37891-2.3477-0.37891-3.4805 0l-45.859 14.758v-71.059c0-0.83203-0.37891-3.7852-3.9336-5.3711l-48.508-15.59c-1.1367-0.37891-2.3477-0.37891-3.4805 0l-48.434 15.59c-0.60547 0.15234-3.6328 1.4375-3.9336 5.3711v205.69l-82.414 26.562c-0.60547 0.14844-3.1016 1.1328-3.9375 5.3711v33.371c0 2.4961 1.5898 4.6172 3.9336 5.3711l236.49 76.281c0.53125 0.23047 1.1367 0.30859 1.7422 0.30859s1.2109-0.074218 1.7422-0.30078l236.49-76.281c2.3477-0.75781 3.9336-2.9531 3.9336-5.3711v-33.371c0-0.082032 0.22656-4.0938-3.8633-5.3789zm-369.98 5.4453 24.293-7.793v15.664zm35.645-118.88v-99.059l37.156-11.957v222.11l-37.156-11.957zm182.75 12.789v79.609l-80.973-26.109v-79.609zm-86.648 63.641 86.648 27.926v24.066l-123.88-39.957zm121.61 44.348c-6.9609 2.2695-14.832 4.7656-23.609 7.5664v-20.355l31.633 10.215c-2.5742 0.83203-5.2227 1.6641-8.0234 2.5742zm-23.613-24.672v-83.316l44.496-14.379v112zm-103.75-113.06v83.32l-41.848 13.469v-110.34zm-101.71-82.109v198.2l-37.082 11.957v-222.11zm11.352 210.08 24.293 7.793-24.293 7.8711zm96.105-162.18 129.63 41.848-37.383 12.031-129.63-41.848zm-101.78-77.34 29.969 9.6875-18.312 5.9023-11.652 3.7852-29.969-9.6875zm-54.109 227.25v20.055c0.15234 4.1641 3.707 5.3711 3.9336 5.3711l48.66 15.664c0.83203 0.30078 2.2695 0.30078 3.1016 0l48.66-15.664s3.9336-1.1367 3.9336-5.3711v-21.793l138.18 44.574c0.60547 0.15234 1.1367 0.30078 1.7422 0.30078 0.60547 0 1.2109-0.074218 1.7422-0.30078l55.848-18.012c3.707-1.2109 3.9336-4.7656 3.9336-5.3711v-20.055l64.172 20.66-19.223 6.207c-27.312 8.7734-198.87 64.094-198.87 64.094l-218.02-70.305zm-74.996 27.852 225.14 72.574v21.418l-225.14-72.504zm461.62 21.488-225.14 72.574v-21.418c5.9766-1.9688 225.14-72.574 225.14-72.574z"/>
  <path d="m310.65 114.8h12.336c3.6328 11.73 14.453 20.055 27.016 20.055s23.461-8.3242 27.094-20.055h12.336c3.707 0 6.8867-2.4961 7.7188-6.1289 0.83203-3.6328-0.90625-7.2656-4.2383-8.9297l-14.453-7.1133c-4.7656-2.3477-7.7188-7.1133-7.7188-12.41 0-3.1016-2.5742-5.6758-5.6758-5.6758h-9.3086l-0.003906-31.031c-0.074219-3.1016-2.5703-5.6758-5.75-5.6758s-5.6758 2.5742-5.6758 5.6758v30.953h-9.3086c-3.1016 0-5.6758 2.5742-5.6758 5.6758 0 5.2969-2.9531 10.066-7.7188 12.41l-14.531 7.1133c-3.3281 1.6641-5.0703 5.2969-4.2383 8.9297 0.91016 3.6328 4.0898 6.207 7.7969 6.207zm39.352 8.7031c-6.1289 0-11.73-3.4805-14.68-8.7031h29.438c-2.9531 5.2227-8.4766 8.7031-14.758 8.7031zm-23.309-20.812c6.8867-3.4062 11.73-9.6094 13.395-16.875h19.902c1.6641 7.2656 6.5078 13.469 13.395 16.875l1.3633 0.67969h-49.492z"/>
  <path d="m323.36 141.66-8.0234 16.574c-1.3633 2.8008-0.22656 6.207 2.6484 7.5664 0.83203 0.37891 1.6641 0.60547 2.4961 0.60547 2.1172 0 4.1641-1.2109 5.1445-3.1797l8.0234-16.574c1.3633-2.8008 0.22656-6.207-2.6484-7.5664-2.875-1.4375-6.2812-0.30078-7.6406 2.5742z"/>
  <path d="m344.32 152.64v16.574c0 3.1016 2.5742 5.6758 5.6758 5.6758s5.6758-2.5742 5.6758-5.6758v-16.574c0-3.1016-2.5742-5.6758-5.6758-5.6758s-5.6758 2.5-5.6758 5.6758z"/>
  <path d="m369.07 139.02c-2.8008 1.3633-4.0117 4.7656-2.6484 7.5664l8.0234 16.574c0.98438 2.043 3.0273 3.1797 5.1445 3.1797 0.83203 0 1.6641-0.15234 2.4961-0.60547 2.8008-1.3633 4.0117-4.7656 2.6484-7.5664l-8.0234-16.574c-1.4336-2.8008-4.7656-3.9375-7.6406-2.5742z"/>
  <use x="70" y="673.511719" xlink:href="#w"/>
  <use x="97.769531" y="673.511719" xlink:href="#d"/>
  <use x="116.429688" y="673.511719" xlink:href="#a"/>
  <use x="142.089844" y="673.511719" xlink:href="#c"/>
  <use x="167.625" y="673.511719" xlink:href="#b"/>
  <use x="185.710938" y="673.511719" xlink:href="#a"/>
  <use x="211.375" y="673.511719" xlink:href="#k"/>
  <use x="251.632812" y="673.511719" xlink:href="#j"/>
  <use x="278.71875" y="673.511719" xlink:href="#i"/>
  <use x="316.554688" y="673.511719" xlink:href="#h"/>
  <use x="345.839844" y="673.511719" xlink:href="#v"/>
  <use x="367.863281" y="673.511719" xlink:href="#c"/>
  <use x="393.394531" y="673.511719" xlink:href="#g"/>
  <use x="445.996094" y="673.511719" xlink:href="#u"/>
  <use x="460.074219" y="673.511719" xlink:href="#t"/>
  <use x="482.59375" y="673.511719" xlink:href="#f"/>
  <use x="509.53125" y="673.511719" xlink:href="#c"/>
  <use x="535.066406" y="673.511719" xlink:href="#s"/>
  <use x="70" y="711.351562" xlink:href="#r"/>
  <use x="86.460938" y="711.351562" xlink:href="#d"/>
  <use x="105.121094" y="711.351562" xlink:href="#e"/>
  <use x="131.117188" y="711.351562" xlink:href="#g"/>
  <use x="183.714844" y="711.351562" xlink:href="#b"/>
  <use x="201.804688" y="711.351562" xlink:href="#f"/>
  <use x="228.742188" y="711.351562" xlink:href="#a"/>
  <use x="267.578125" y="711.351562" xlink:href="#q"/>
  <use x="299.242188" y="711.351562" xlink:href="#e"/>
  <use x="325.238281" y="711.351562" xlink:href="#p"/>
  <use x="352.175781" y="711.351562" xlink:href="#o"/>
  <use x="392.285156" y="711.351562" xlink:href="#n"/>
  <use x="420.019531" y="711.351562" xlink:href="#d"/>
  <use x="438.679688" y="711.351562" xlink:href="#e"/>
  <use x="464.671875" y="711.351562" xlink:href="#m"/>
  <use x="477.644531" y="711.351562" xlink:href="#a"/>
  <use x="503.304687" y="711.351562" xlink:href="#l"/>
  <use x="525.734375" y="711.351562" xlink:href="#b"/>
 </g>
</svg>
